# xmcd CD database file
#
# Track frame offsets:
#	150
#	22513
#	49866
#	67040
#	88185
#	109648
#	145596
#	166824
#	210005
#	234567
#	246736
#	264799
#	289544
#	316605
#
# Disc length: 4510 seconds
#
# Revision: 0
# Processed by: cddbd v1.5.1PL2 Copyright (c) Steve Scherf et al.
# Submitted via: CDex 1.51
#
DISCID=ae119c0e
DTITLE=Kenny Burrell - The Artist Selects
DYEAR=2005
DGENRE=Jazz
TTITLE0=This Time the Dream's On Me
TTITLE1=Delilah
TTITLE2=But Not For Me
TTITLE3=Phinupi
TTITLE4=love, your Spell is Everywhere
TTITLE5=Scotch Blues
TTITLE6=Weaver of Dreams
TTITLE7=Swingin'
TTITLE8=Chitlins Con Carne
TTITLE9=Soul lament
TTITLE10=Midnight Blue
TTITLE11=These Foolish Things
TTITLE12=Hackensack
TTITLE13=Freedom
EXTD=YEAR: 2005
EXTT0=
EXTT1=
EXTT2=
EXTT3=
EXTT4=
EXTT5=
EXTT6=
EXTT7=
EXTT8=
EXTT9=
EXTT10=
EXTT11=
EXTT12=
EXTT13=
PLAYORDER=
